<?xml version="1.0" standalone="no"?>
<!DOCTYPE svg PUBLIC "-//W3C//DTD SVG 20010904//EN"
 "http://www.w3.org/TR/2001/REC-SVG-20010904/DTD/svg10.dtd">
<svg version="1.0" xmlns="http://www.w3.org/2000/svg"
 width="38.000000pt" height="38.000000pt" viewBox="0 0 38.000000 38.000000"
 preserveAspectRatio="xMidYMid meet">

<g transform="translate(0.000000,38.000000) scale(0.100000,-0.100000)"
fill="#000000" stroke="none">
<path d="M0 190 l0 -190 190 0 190 0 0 190 0 190 -190 0 -190 0 0 -190z m304
114 c21 -8 20 -40 -1 -53 -13 -8 -14 -10 -4 -11 8 0 22 7 30 14 12 11 21 12
31 5 13 -8 11 -13 -9 -29 -13 -11 -33 -20 -45 -20 -12 0 -27 -9 -34 -21 -12
-18 -10 -23 12 -44 26 -24 44 -71 31 -83 -4 -4 -12 2 -19 12 -24 41 -57 68
-74 60 -9 -4 -34 -9 -54 -12 -33 -4 -38 -2 -38 17 0 17 5 20 23 16 26 -6 36 0
61 38 18 30 14 49 -6 29 -14 -14 -48 -16 -48 -3 0 20 54 52 77 46 15 -3 23 -1
23 8 0 7 5 18 12 25 14 14 12 14 32 6z m-91 -21 c-18 -2 -48 -2 -65 0 -18 2
-4 4 32 4 36 0 50 -2 33 -4z m-100 -50 c-18 -2 -48 -2 -65 0 -18 2 -4 4 32 4
36 0 50 -2 33 -4z m62 -53 c4 -6 -18 -10 -59 -10 -37 0 -66 4 -66 10 0 6 26
10 59 10 33 0 63 -4 66 -10z m-77 -67 c-16 -2 -40 -2 -55 0 -16 2 -3 4 27 4
30 0 43 -2 28 -4z"/>
</g>
</svg>
